<?xml version="1.0" standalone="no"?>
<!DOCTYPE svg PUBLIC "-//W3C//DTD SVG 20010904//EN"
 "http://www.w3.org/TR/2001/REC-SVG-20010904/DTD/svg10.dtd">
<svg version="1.0" xmlns="http://www.w3.org/2000/svg"
 width="386.000000pt" height="276.000000pt" viewBox="0 0 386.000000 276.000000"
 preserveAspectRatio="xMidYMid meet">

<g transform="translate(0.000000,276.000000) scale(0.100000,-0.100000)"
fill="#fff" stroke="none">
<path d="M1005 2470 c-102 -22 -154 -40 -240 -83 -247 -123 -448 -361 -548
-652 -45 -130 -65 -231 -77 -384 -42 -567 223 -958 703 -1032 121 -19 322 -7
431 26 276 81 482 267 585 528 17 43 31 80 31 82 0 3 -63 5 -139 5 -137 0
-139 0 -145 -23 -9 -39 -100 -169 -147 -212 -140 -127 -329 -187 -523 -164
-213 24 -357 122 -446 304 -61 125 -74 193 -74 385 -1 179 19 302 70 436 108
287 309 481 559 540 90 21 260 20 340 -1 203 -53 337 -191 369 -380 l12 -70
135 0 134 0 -4 60 c-14 249 -164 464 -398 572 -124 57 -208 75 -383 79 -127 3
-171 0 -245 -16z"/>
<path d="M1346 1548 c-55 -15 -119 -82 -141 -147 -23 -70 -18 -185 10 -223 60
-83 203 -89 280 -12 42 42 46 74 11 74 -14 0 -31 -8 -38 -18 -34 -48 -119 -68
-169 -42 -65 36 -64 191 3 270 61 73 178 63 208 -16 7 -17 17 -24 36 -24 25 0
26 2 21 36 -8 45 -30 71 -82 95 -44 20 -80 22 -139 7z"/>
<path d="M1695 1538 c-8 -22 -85 -387 -85 -403 0 -10 10 -15 28 -15 l27 0 38
182 c21 100 40 185 43 190 7 11 214 10 214 -1 0 -8 -59 -291 -74 -354 -4 -15
1 -18 26 -15 l31 3 43 200 c24 110 43 206 44 213 0 18 -329 18 -335 0z"/>
<path d="M2145 1538 c-5 -19 -85 -402 -85 -410 0 -5 61 -8 135 -8 l135 0 0 25
0 25 -100 0 c-112 0 -106 -5 -86 80 l12 55 100 5 99 5 3 28 3 27 -96 0 c-94 0
-95 0 -90 23 3 12 9 40 13 62 l8 40 107 3 c106 3 107 3 107 27 l0 25 -130 0
c-96 0 -132 -3 -135 -12z"/>
<path d="M2516 1539 c-6 -19 -86 -400 -86 -410 0 -5 48 -9 108 -9 163 1 227
39 227 138 0 36 -5 48 -29 67 -28 23 -28 23 -7 30 28 9 61 61 61 97 0 16 -12
41 -29 60 -29 32 -30 32 -135 36 -83 3 -107 1 -110 -9z m195 -65 c22 -20 24
-42 6 -65 -21 -28 -54 -39 -117 -39 -54 0 -61 2 -56 18 3 9 8 35 12 57 4 22 9
44 12 49 8 15 122 -1 143 -20z m-59 -164 c48 -14 64 -41 48 -80 -16 -39 -65
-60 -139 -60 -66 0 -67 1 -52 60 5 19 12 47 15 63 6 24 11 27 49 27 23 0 59
-5 79 -10z"/>
<path d="M2920 1543 c0 -11 -79 -384 -86 -406 -5 -16 -1 -18 27 -15 29 3 34 7
40 38 25 126 31 150 38 150 5 0 41 -43 80 -95 66 -88 74 -95 107 -95 l35 0
-74 98 c-40 53 -76 102 -80 108 -4 7 34 47 96 100 157 134 149 124 102 124
-36 0 -50 -9 -143 -91 -57 -50 -106 -88 -109 -85 -3 3 1 40 10 81 22 97 22 95
-13 95 -16 0 -30 -3 -30 -7z"/>
<path d="M3323 1340 c-68 -115 -123 -212 -123 -215 0 -3 13 -5 30 -5 25 0 33
8 62 60 l33 60 82 0 c92 0 83 7 98 -82 5 -32 10 -38 30 -38 32 0 32 1 -5 230
-16 102 -30 188 -30 193 0 4 -12 7 -27 7 -26 0 -38 -18 -150 -210z m152 15 l7
-65 -62 0 c-34 0 -60 4 -58 9 2 5 23 45 48 89 51 91 52 90 65 -33z"/>
</g>
</svg>
