<?xml version="1.0" standalone="no"?>
<!DOCTYPE svg PUBLIC "-//W3C//DTD SVG 20010904//EN"
 "http://www.w3.org/TR/2001/REC-SVG-20010904/DTD/svg10.dtd">
<svg version="1.0" xmlns="http://www.w3.org/2000/svg"
 width="494.000000pt" height="488.000000pt" viewBox="0 0 494.000000 488.000000"
 preserveAspectRatio="xMidYMid meet">
<g transform="translate(0.000000,488.000000) scale(0.100000,-0.100000)"
fill="#64b5f6" stroke="none">
<path d="M2258 4554 c-633 -86 -1126 -466 -1377 -1059 -68 -161 -121 -337
-147 -495 -79 -473 -50 -987 78 -1380 210 -648 660 -1074 1288 -1219 169 -39
422 -56 609 -41 475 39 867 221 1140 531 177 200 286 411 356 685 25 103 49
94 -238 94 l-254 0 -28 -73 c-124 -319 -301 -524 -560 -652 -170 -84 -333
-118 -565 -118 -228 0 -398 36 -576 123 -391 192 -652 585 -738 1110 -54 328
-33 751 50 1041 139 484 457 830 874 950 237 69 572 66 802 -7 185 -59 308
-133 443 -267 125 -124 194 -237 261 -422 l32 -90 256 -3 c229 -2 256 -1 256
14 0 28 -39 171 -69 251 -87 234 -185 387 -360 562 -124 124 -252 214 -426
301 -193 95 -357 145 -565 170 -115 14 -423 11 -542 -6z"/>
</g>
</svg>
